#!OML:ASF \\sashay\E\Suitcase\Project 1\Capture day 1\Session 1\Male1.ASF
:FULLY-SPECIFIED
:DEGREES
500
root 0.346716 17.6283 -16.8698 6.05899 7.68082 -4.83785
lowerback 8.93957 -0.0803712 3.36458
upperback -1.73333 0.512788 3.44463
thorax -6.85803 0.193727 1.65323
lowerneck -22.0156 -2.18201 -0.749539
upperneck 14.4348 -2.02619 -3.59504
head 8.04125 -1.38689 -1.35373
rclavicle 4.96962e-016 1.82882e-014
rhumerus -54.1248 -36.868 -47.5029
rradius 11.1136
rwrist 10.2602
rhand -14.2172 15.0765
rfingers 7.12502
rthumb 11.9197 -14.5642
lclavicle 4.96962e-016 1.82882e-014
lhumerus -46.3589 7.46131 72.6265
lradius 33.4684
lwrist 2.85059
lhand -4.64035 42.1914
lfingers 7.12502
lthumb 21.1389 71.059
rfemur -8.74443 -2.15616 30.8797
rtibia 15.7632
rfoot -13.4852 -13.9595
rtoes 16.6431
lfemur -23.3258 0.227952 -13.8072
ltibia 67.5839
lfoot -3.44908 -5.3304
ltoes 12.8836
501
root 0.345032 17.6263 -16.728 6.0633 7.33782 -4.9433
lowerback 8.96158 0.10102 3.4425
upperback -1.78158 0.770274 3.48149
thorax -6.9231 0.316899 1.61111
lowerneck -22.5995 -2.23416 -2.14669
upperneck 16.2398 -1.96077 -1.82694
head 8.78976 -1.26561 -0.551079
rclavicle 1.56543e-014 7.15625e-015
rhumerus -56.0757 -38.0436 -44.4541
rradius 10.5119
rwrist 12.437
rhand -13.5647 15.3768
rfingers 7.12502
rthumb 12.5488 -14.2264
lclavicle 1.56543e-014 7.15625e-015
lhumerus -46.7487 7.91 72.3812
lradius 32.9451
lwrist 3.0455
lhand -5.48743 42.9185
lfingers 7.12502
lthumb 20.325 71.8749
rfemur -8.3532 -1.79459 31.0337
rtibia 15.9884
rfoot -14.0316 -14.0874
rtoes 16.1424
lfemur -24.2478 0.163401 -13.7003
ltibia 67.5664
lfoot -4.80785 -5.0444
ltoes 14.2146
502
root 0.334441 17.595 -16.6157 6.06497 7.26996 -5.03458
lowerback 9.12121 0.0839808 3.56301
upperback -1.6676 0.765485 3.48497
thorax -6.89198 0.310423 1.54683
lowerneck -23.1812 -2.23395 -1.98623
upperneck 16.1802 -1.88156 -2.35314
head 8.86223 -1.27965 -0.753413
rclavicle 8.05078e-015 8.74653e-015
rhumerus -55.1266 -36.4144 -46.6778
rradius 11.0898
rwrist 10.3224
rhand -13.3216 14.4294
rfingers 7.12502
rthumb 12.7832 -15.1592
lclavicle 8.05078e-015 8.74653e-015
lhumerus -46.9996 8.55218 71.7946
lradius 32.5905
lwrist 3.26021
lhand -4.75413 42.0554
lfingers 7.12502
lthumb 21.0296 70.9352
rfemur -8.05459 -0.930859 31.2293
rtibia 16.3025
rfoot -14.4934 -14.8408
rtoes 15.8161
lfemur -25.3498 -0.0650611 -13.5755
ltibia 67.5329
lfoot -5.78892 -4.75226
ltoes 14.1253
503
root 0.332223 17.5864 -16.4837 6.20779 6.88322 -5.12514
lowerback 9.00339 0.349924 3.73925
upperback -1.51811 1.11574 3.34579
thorax -6.65942 0.474992 1.24779
lowerneck -23.3 -2.3554 -1.94725
upperneck 15.8384 -2.14917 -1.94774
head 8.7659 -1.35337 -0.655697
rclavicle -2.19657e-014 -5.08889e-014
rhumerus -56.7295 -38.0998 -44.1518
rradius 10.4538
rwrist 12.7315
rhand -13.4433 14.2094
rfingers 7.12502
rthumb 12.6659 -15.3865
lclavicle -2.19657e-014 -5.08889e-014
lhumerus -47.4197 8.44649 71.6651
lradius 33.0577
lwrist 3.41332
lhand -4.62267 42.5096
lfingers 7.12502
lthumb 21.1559 71.3753
rfemur -7.81365 -0.902026 31.371
rtibia 16.5352
rfoot -15.0492 -14.479
rtoes 15.9291
lfemur -26.5564 -0.0358273 -13.5632
ltibia 67.1955
lfoot -6.49975 -4.35893
ltoes 13.7053
504
root 0.326724 17.5612 -16.3602 6.13256 6.7553 -5.17846
lowerback 9.13565 0.360044 3.74918
upperback -1.36147 1.13168 3.36588
thorax -6.56871 0.484602 1.25934
lowerneck -23.4994 -2.30311 -2.27193
upperneck 15.6675 -2.05884 -1.5079
head 8.74908 -1.28022 -0.44078
rclavicle -4.37326e-015 7.55382e-015
rhumerus -57.0004 -37.9484 -43.9356
rradius 10.3693
rwrist 13.0891
rhand -13.5113 14.3977
rfingers 7.12502
rthumb 12.6003 -15.2023
lclavicle -4.37326e-015 7.55382e-015
lhumerus -47.6711 9.29313 71.1115
lradius 32.656
lwrist 3.29516
lhand -4.20104 42.3268
lfingers 7.12502
lthumb 21.5609 71.1466
rfemur -7.47339 -0.806426 31.5312
rtibia 16.9193
rfoot -15.471 -14.6063
rtoes 15.0949
lfemur -27.3939 -0.291513 -13.4879
ltibia 66.7254
lfoot -7.57776 -4.02689
ltoes 13.5828
505
root 0.325688 17.5407 -16.2425 6.21868 6.43526 -5.25394
lowerback 9.49808 0.490535 3.94737
upperback -1.54346 1.35324 3.24042
thorax -6.96141 0.576688 0.982273
lowerneck -22.9384 -2.2988 -2.67433
upperneck 15.1957 -2.08135 -0.858004
head 8.50392 -1.23772 -0.146633
rclavicle 3.27995e-015 1.98785e-014
rhumerus -56.8573 -36.6306 -45.1925
rradius 10.6082
rwrist 11.3799
rhand -13.1609 13.9413
rfingers 7.12502
rthumb 12.9381 -15.6376
lclavicle 3.27995e-015 1.98785e-014
lhumerus -48.2533 9.0391 70.9609
lradius 32.4231
lwrist 3.52252
lhand -4.62511 43.2392
lfingers 7.12502
lthumb 21.1536 72.1051
rfemur -7.24088 -0.69855 31.6532
rtibia 17.1399
rfoot -15.8201 -14.4958
rtoes 14.9379
lfemur -28.344 -0.371614 -13.4328
ltibia 66.1193
lfoot -8.42422 -3.48678
ltoes 12.1951
506
root 0.320683 17.5195 -16.1161 6.36041 6.2035 -5.32698
lowerback 9.37011 0.594445 3.9911
upperback -1.54604 1.49028 3.26183
thorax -6.88911 0.643466 0.960565
lowerneck -22.3573 -2.32673 -2.77717
upperneck 14.6043 -2.11384 -0.856549
head 8.20654 -1.25378 -0.123255
rclavicle -4.96962e-016 5.96354e-015
rhumerus -55.9734 -34.3888 -47.8671
rradius 11.1693
rwrist 8.40034
rhand -13.135 13.6121
rfingers 7.12502
rthumb 12.9631 -15.9652
lclavicle -4.96962e-016 5.96354e-015
lhumerus -49.0168 9.60182 70.4734
lradius 32.3254
lwrist 3.34909
lhand -4.18586 42.4543
lfingers 7.12502
lthumb 21.5755 71.2724
rfemur -6.97323 -0.555734 31.8148
rtibia 17.2657
rfoot -16.3471 -14.499
rtoes 15.9368
lfemur -29.3378 -0.515658 -13.3111
ltibia 65.3628
lfoot -9.2685 -2.80718
ltoes 12.7418
507
root 0.320789 17.5116 -15.9923 6.48948 6.06021 -5.37347
lowerback 9.41289 0.750245 4.21625
upperback -1.49102 1.7124 3.0894
thorax -6.84056 0.740372 0.618639
lowerneck -22.0719 -2.26045 -2.33647
upperneck 14.2552 -2.17978 -0.83164
head 8.0355 -1.25412 -0.188383
rclavicle -3.47873e-015 3.53837e-014
rhumerus -58.3399 -37.0994 -43.7002
rradius 10.2656
rwrist 12.5624
rhand -13.0117 14.0805
rfingers 7.12502
rthumb 13.0819 -15.4893
lclavicle -3.47873e-015 3.53837e-014
lhumerus -49.0775 9.00425 70.5983
lradius 32.1823
lwrist 3.59778
lhand -4.66663 42.8039
lfingers 7.12502
lthumb 21.1137 71.6744
rfemur -6.71455 -0.0247084 31.9293
rtibia 17.4264
rfoot -16.7882 -14.7119
rtoes 16.5085
lfemur -30.4113 -0.711879 -13.3167
ltibia 64.4053
lfoot -9.94623 -1.92538
ltoes 12.0012
508
root 0.314198 17.5023 -15.8629 6.52173 5.8618 -5.41302
lowerback 9.39476 0.823373 4.10097
upperback -1.36077 1.79542 3.19848
thorax -6.69697 0.791012 0.785692
lowerneck -21.8628 -2.43652 -3.12287
upperneck 13.5771 -2.24709 -0.527483
head 7.78681 -1.29236 0.0378598
rclavicle 5.66536e-015 4.17448e-014
rhumerus -56.493 -34.6245 -47.2507
rradius 10.8604
rwrist 8.81134
rhand -12.9858 12.8717
rfingers 7.12502
rthumb 13.1069 -16.6964
lclavicle 5.66536e-015 4.17448e-014
lhumerus -49.4763 9.5668 70.4672
lradius 32.0151
lwrist 3.32094
lhand -4.36203 42.9118
lfingers 7.12502
lthumb 21.4063 71.7492
rfemur -6.25276 0.191162 32.0613
rtibia 17.4312
rfoot -17.0992 -14.9849
rtoes 15.9015
lfemur -31.1621 -0.915923 -13.2237
ltibia 63.3438
lfoot -10.9268 -1.28771
ltoes 10.3075
